PathFileType	4	(X/Y/Z)	10_2_31_p1_0-525_filt_butterworth.trc
DataRate	CameraRate	NumFrames	NumMarkers	Units	OrigDataRate	OrigDataStartFrame	OrigNumFrames
60.0	60.0	7	27	m	60.0	393	525
Frame#	Time	RHip			RKnee			RAnkle			RBigToe			RSmallToe			RHeel			LHip			LKnee			LAnkle			LBigToe			LSmallToe			LHeel			Neck			Head			Nose			RShoulder			RElbow			RWrist			RThumb			RIndex			RPinky			LShoulder			LElbow			LWrist			LThumb			LIndex			LPinky			
		X1	Y1	Z1	X2	Y2	Z2	X3	Y3	Z3	X4	Y4	Z4	X5	Y5	Z5	X6	Y6	Z6	X7	Y7	Z7	X8	Y8	Z8	X9	Y9	Z9	X10	Y10	Z10	X11	Y11	Z11	X12	Y12	Z12	X13	Y13	Z13	X14	Y14	Z14	X15	Y15	Z15	X16	Y16	Z16	X17	Y17	Z17	X18	Y18	Z18	X19	Y19	Z19	X20	Y20	Z20	X21	Y21	Z21	X22	Y22	Z22	X23	Y23	Z23	X24	Y24	Z24	X25	Y25	Z25	X26	Y26	Z26	X27	Y27	Z27	
393	6.55	0.3170946684188664	0.586469293292325	0.9825585851431172	0.32453679349289305	0.6672658171301492	1.4019846421240723	0.3139484307861557	0.8127354232502517	1.7959351580113985	0.2925156524518331	0.6396959166317469	1.859349635123547	0.34717247287212166	0.7289498939734367	1.8714636230893735	0.26957609316593967	0.8855111030523903	1.8490525412169485	0.17629137990377772	0.4843528825111769	0.9332586613524647	0.23623781504836397	0.4932453058627775	1.3733014450825545	0.0930537617354772	0.7091915758146408	1.7305581405726553	0.1382853770480737	0.6043523331375474	1.8697088858786295	0.07031190781992498	0.6069164988807542	1.8364763367973858	0.07952661657321983	0.8101899975280085	1.7996533990540975	0.4123537658209407	0.41720198061722935	0.4740508500973621	0.5402834672068366	0.3077507671909454	0.2915986179116084	0.4863494215763474	0.27802865459330894	0.42987033459605517	0.4908709448145559	0.527150197319694	0.5565865093442263	0.4586191047324727	0.6692587096845902	0.7816833748088239	0.5811651779744696	0.5144700636376094	0.8864310972392652	0.6650474811680486	0.4540169796784606	0.9210786645381976	0.6665010703009058	0.4558365914345634	0.9307104267039441	0.6091352634583812	0.5183624498639241	0.9673220717973874	0.27037220331564243	0.40818678908982176	0.46564751356930545	0.03079563154588899	0.5207221596409215	0.5073251341876253	-0.13367753644795585	0.5647521422922477	0.6227485297618333	-0.13634538417485492	0.6366179659157885	0.7240655755158962	-0.18047896282997028	0.665622119900863	0.718666781473907	-0.1909011539569036	0.6089091641889038	0.6798731951862
394	6.566666666666666	0.3191677752779224	0.5818299687612466	0.9842757709772887	0.32440798911732605	0.6672672695079563	1.4046726400184646	0.3135240144024153	0.8135281556330858	1.7974386099376216	0.291728246518401	0.6379291757717576	1.8600963482497899	0.3460697669919206	0.7232753071685052	1.870670099106142	0.26944350051689114	0.8868519194479378	1.8514738123068268	0.17547050557961766	0.48038401864240776	0.9344148686819882	0.23409545480947092	0.48931534085109957	1.3720319431917916	0.09369627867958727	0.7075394414026444	1.7316524992120153	0.13819335086815418	0.6037668263226099	1.8682321948247096	0.07018025400660748	0.6069652111088545	1.836603503625702	0.07966399711961263	0.808320466476868	1.8015460581638134	0.41237236643232317	0.41710643920218626	0.4748641562706643	0.5423969827672102	0.3067711499695714	0.29217151385765466	0.4867381058549279	0.2788796910144542	0.43473616261848236	0.4936188029136026	0.5273893298299821	0.5597748836649844	0.45850063899662363	0.6696820100452953	0.7829922436840554	0.578742151909247	0.504387898466676	0.8870646762545107	0.6647394028011123	0.4466091289856633	0.9280676755821787	0.666135042593941	0.4511077571172691	0.9364336531127596	0.6026637441307431	0.5027332115806171	0.9672378125415734	0.2707004096639255	0.4122062779201724	0.46443137062092094	0.03503598089198961	0.5269706965738463	0.49794033208959987	-0.13337902616886999	0.5636550739785602	0.605355837570796	-0.15131545644676414	0.6500661107007245	0.7045897770997788	-0.18372190437477623	0.6670217574141336	0.6950108542181712	-0.19073580792335312	0.5976407955889422	0.6562453197630675
395	6.583333333333333	0.32084275451985206	0.577853033249895	0.984976188314219	0.3242798799177179	0.6672411694950057	1.4063644979005356	0.3131040768652418	0.8141470487278066	1.8004898097914648	0.28974752343626087	0.6337802761300703	1.861192667127356	0.34520427414645116	0.7190720305530899	1.8702417846177515	0.2694494053625651	0.8885710220524072	1.8548108566425903	0.17513622308604757	0.4782653941834162	0.9350107323598963	0.2326638593887182	0.4843136657345071	1.3700031722543016	0.09354686844674003	0.7078050070152098	1.7340444643163275	0.13795445149355995	0.6028510132645295	1.866333745018427	0.07000605857424144	0.6065465275573023	1.8364348173113916	0.07741350526543493	0.8129093509011809	1.8062809568927647	0.4132766674559154	0.41566667276925917	0.4759420614289037	0.545631079465851	0.306197107607417	0.2922161586767929	0.4873955768545898	0.27963291503845406	0.43971777590488637	0.49753802165345634	0.5274083172635793	0.562845480006301	0.4584892030556882	0.670262043077351	0.7848673858946991	0.5770080700871268	0.4956484086150409	0.8878995127932741	0.6634575065619441	0.44084808873333925	0.9338058169302235	0.6648350324237459	0.44771776182750284	0.9425283092589447	0.5974430302623779	0.48890187237631866	0.9679876638226911	0.2698262419920533	0.41811513795972693	0.46335064085301825	0.040469506002372216	0.535989815276181	0.4897110237951431	-0.1364268826015856	0.5644704211993786	0.5882106692544555	-0.1624001245077069	0.6548412087598857	0.6819426449628108	-0.18889755075246983	0.6709201362829657	0.6723397021524842	-0.18877131785704454	0.5922396503855012	0.6348988952606972
396	6.6	0.32183356784437334	0.5753519071668841	0.9846260595378966	0.32425055405791303	0.6671608862765702	1.4068571938060312	0.3128840223209833	0.8143244397328946	1.803771799559376	0.2871818013055498	0.6285063855081583	1.8620839858672882	0.3448857256864327	0.7173194826127892	1.8699173287601314	0.26947215887368925	0.8895808926198719	1.8577076736827458	0.17448729404269245	0.4769069458301767	0.9350374069830187	0.2320691140497241	0.48045199647424575	1.3682881788439387	0.09313638952945037	0.708670666453732	1.7366664723529346	0.13765409968815934	0.6018742743155215	1.8648787763396153	0.06984535712167343	0.6056238482640495	1.8357712957808618	0.07448103960953813	0.8199405479073942	1.8127905102221644	0.41551945283934566	0.41233262184574915	0.47716406073512163	0.55005269960826	0.3059649249662506	0.2923834386660072	0.48860184244111765	0.2807456549708289	0.4447140649291947	0.5024226550617121	0.52731962635997	0.5650774619783199	0.4589825166063907	0.670576163520286	0.7867320272282128	0.574936422656541	0.48843908850937434	0.888985376955628	0.6601061914698806	0.43368320756229534	0.9373680880156554	0.66094972635578	0.441847861390285	0.9476510746409907	0.5942166863852761	0.47820364816999594	0.9696130681036552	0.26894724353040866	0.4253892386290026	0.4618192156019326	0.044488860061912834	0.5488347362152426	0.48277513906336283	-0.14357736553918055	0.5689297844862102	0.5690332852846638	-0.17103590172103378	0.652497247187721	0.6585286917530637	-0.1983943924331092	0.6772814904842079	0.6512345644657193	-0.18643084688424075	0.5846870402255087	0.6155246690006446
397	6.616666666666666	0.322852679319665	0.5737564459106429	0.9834104290219241	0.324341514244661	0.6669530670828381	1.406390059092093	0.3128787176219496	0.8139797398630989	1.8056211821678736	0.285224853945093	0.624680382856677	1.8624406385562438	0.3448798709982139	0.7172334394792033	1.8698340674927438	0.26942100065878766	0.8892745078863122	1.8591485712843334	0.17349160413597017	0.47572760633834255	0.9351693032701763	0.23221713192992322	0.4792566796091771	1.3678664812040324	0.09273853965401974	0.709467886754422	1.7379832396264694	0.13745622927884013	0.6013489484139872	1.864310381891805	0.06973485915969004	0.604825983754741	1.8348161277398773	0.07227720581497056	0.8257593287903351	1.8186892292103636	0.4184507857332998	0.40809733856426755	0.4786967767190228	0.5547508905792147	0.3060389170105056	0.29284422613038885	0.49008630415781457	0.2819368875129105	0.44881888660190816	0.5078883410987264	0.5272144962237901	0.566478445416416	0.46039481768313584	0.6703031242509356	0.7878380885144712	0.5718392912676475	0.48206996584118755	0.8898498537636657	0.6535749927811898	0.4206512099052563	0.9388240520062995	0.6529034584544282	0.4288521086173424	0.9505120297562804	0.5922034143168018	0.47026888855833393	0.9719570089378458	0.2692551875609915	0.43077111264187806	0.45973871712367437	0.04557411043745152	0.5551201038322936	0.4773687179656314	-0.15411919825336368	0.5756512026025408	0.5477918059320463	-0.17835379750310426	0.6479898839434921	0.6377478594248961	-0.21129894509979108	0.6833943228260392	0.6312028202628297	-0.1853246819433695	0.5740645634384942	0.5975543748757371
398	6.633333333333334	0.32477381587498916	0.5723134389477261	0.981338737752475	0.3245508304723841	0.6665174421812032	1.405173276336267	0.3129378206490563	0.8130669731098121	1.805237750521922	0.2843838061986635	0.6235231701013343	1.8622183905311536	0.3448743121806853	0.717763146456611	1.8701407849682334	0.2692718215385329	0.8881910164780622	1.8593251091431713	0.1727163605254294	0.47508365100279093	0.9350726504362301	0.23308231656517056	0.4807526881335019	1.3682404343530983	0.09244319527374617	0.7099943532168114	1.737695179725791	0.13742450380572424	0.601411773552443	1.8643634763091619	0.06964816628512716	0.6047444490098723	1.8340170937166056	0.07121570804275734	0.8284258316263975	1.821622589495459	0.4207208351226656	0.4049764392569033	0.48069919932303723	0.557978977007701	0.30657127583002064	0.2932708829818628	0.49142880521538657	0.2826993752679865	0.45138165731325736	0.5137989195026857	0.5270535197173531	0.5675358451871468	0.4628661356335755	0.6693389553190298	0.788263292460449	0.5680384238925869	0.47652117519167575	0.8901645778400161	0.6436320334183441	0.40225590654421406	0.9390014669189908	0.6407479342290759	0.4099162311211594	0.9514643743790318	0.5900950409331464	0.46541056955595683	0.9745422540437185	0.27136994869884135	0.43253894947479543	0.4570338552461748	0.04488136466804939	0.540121882745967	0.47393567214887533	-0.1657843038688445	0.5800432049624663	0.5268320505330428	-0.1838229693256536	0.6432607050000663	0.6204796262220992	-0.22466051902997733	0.6897022066828069	0.6102067843224841	-0.18712272271953034	0.5642594979708895	0.5803919689644998
399	6.65	0.3273673202876738	0.5710941689871314	0.9790005541081837	0.32484592719102456	0.6658506764350205	1.4036662505515838	0.3129110660769342	0.8117279586081392	1.80270406014997	0.28426055226299274	0.6241832635193076	1.8614748225155275	0.3447644077354569	0.7184240117155436	1.8702010900083539	0.26907763197716955	0.8871943322988608	1.8586823574262623	0.1724428520706939	0.4751191505650391	0.9337756863843831	0.23452083059462434	0.4841688640315731	1.368059270783038	0.09230133827776175	0.7101814671020382	1.7368531523410593	0.13742254918385433	0.6013753803013544	1.8644454309928506	0.06953698162757276	0.6049981417007542	1.8333614835740033	0.07104910757585074	0.8278535107212446	1.8211813317976715	0.4217960674111604	0.40361767913380664	0.4828743110544041	0.5591644706813553	0.30778609298289533	0.2932488243332383	0.49279226973392554	0.2827752371370614	0.45244307862195016	0.5198326351528806	0.5272957552909711	0.5687812297730626	0.46609762346422046	0.6673137308250041	0.7890138230047794	0.5644701984420926	0.4729723700894126	0.8908492917565334	0.6318501537456781	0.3855490030015452	0.9396398362433176	0.6277368848762598	0.3925730026864971	0.9523139907574858	0.5876461341151699	0.46390078764262094	0.9768538745704712	0.2749501859272669	0.43176971623791033	0.4539597963008057	0.04440018493153328	0.504509222739771	0.4718137463694207	-0.17603312578369448	0.5787130851814699	0.5079321860312437	-0.18709431066897672	0.6377486528916352	0.604487867906768	-0.23591862078081705	0.6988897311760958	0.5874020482910635	-0.19242573563675305	0.5563668601699212	0.5635881174426917
